<svg xmlns="http://www.w3.org/2000/svg" version="1.1" xmlns:xlink="http://www.w3.org/1999/xlink" xmlns:svgjs="http://svgjs.dev/svgjs" width="2000" height="1250" viewBox="0 0 2000 1250"><g transform="matrix(1,0,0,1,0,0)"><svg viewBox="0 0 576 360" data-background-color="#0c1d36" preserveAspectRatio="xMidYMid meet" height="1250" width="2000" xmlns="http://www.w3.org/2000/svg" xmlns:xlink="http://www.w3.org/1999/xlink"><g id="tight-bounds" transform="matrix(1,0,0,1,0,0)"><svg viewBox="0 0 576 360" height="360" width="576"><g><svg></svg></g><g><svg viewBox="0 0 576 360" height="360" width="576"><g><path xmlns="http://www.w3.org/2000/svg" d="M132.115 90l155.885-90 155.885 90v180l-155.885 90-155.885-90zM134.373 268.697l153.627 88.696 153.627-88.696v-177.394l-153.627-88.696-153.627 88.696z" fill="#f9cc0b" fill-rule="nonzero" stroke="none" stroke-width="1" stroke-linecap="butt" stroke-linejoin="miter" stroke-miterlimit="10" stroke-dasharray="" stroke-dashoffset="0" font-family="none" font-weight="none" font-size="none" text-anchor="none" style="mix-blend-mode: normal" data-fill-palette-color="tertiary"></path></g><g transform="matrix(1,0,0,1,190.529766,131.91198450527372)"><svg viewBox="0 0 194.940468 96.17603098945253" height="96.17603098945253" width="194.940468"><g><svg viewBox="0 0 194.940468 96.17603098945253" height="96.17603098945253" width="194.940468"><g><svg viewBox="0 0 194.940468 96.17603098945253" height="96.17603098945253" width="194.940468"><g><path d="M0 96.176v-96.176h194.94v96.176z" fill="#f9cc0b" stroke="transparent" stroke-width="0" rx="0%" data-fill-palette-color="tertiary"></path><path d="M2.955 93.221v-90.266h189.031v90.266z" fill="#0c1d36" stroke="transparent" stroke-width="0" rx="0%" data-fill-palette-color="quaternary"></path><path d="M8.865 87.311v-78.446h177.211v78.446z" fill="#f9cc0b" stroke="transparent" stroke-width="0" data-fill-palette-color="tertiary"></path></g><g transform="matrix(1,0,0,1,17.729765999999998,17.729765999999998)"><svg viewBox="0 0 159.480936 60.71649898945253" height="60.71649898945253" width="159.480936"><g><svg viewBox="0 0 159.480936 60.71649898945253" height="60.71649898945253" width="159.480936"><g transform="matrix(1,0,0,1,0,0)"><svg width="159.480936" viewBox="6 -37.900001525878906 99.55000305175781 37.900001525878906" height="60.71649898945253" data-palette-color="#0c1d36"><path d="M29.95-37.9L32.75-37.9 32.75 0 29.95 0 29.95-17.7 8.8-17.7 8.8 0 6 0 6-37.9 8.8-37.9 8.8-20.4 29.95-20.4 29.95-37.9ZM67.45-37.9L67.45-35.2 55.5-35.2 55.5 0 52.7 0 52.7-35.2 40.75-35.2 40.75-37.9 67.45-37.9ZM87.7-37.9Q96.55-37.9 101.05-33.08 105.55-28.25 105.55-18.9L105.55-18.9Q105.55-9.5 101.07-4.75 96.6 0 87.7 0L87.7 0 75.45 0 75.45-37.9 87.7-37.9ZM87.7-2.6Q95.1-2.6 98.87-6.55 102.65-10.5 102.65-19.05L102.65-19.05Q102.65-27.4 98.85-31.35 95.05-35.3 87.7-35.3L87.7-35.3 78.25-35.3 78.25-2.6 87.7-2.6Z" opacity="1" transform="matrix(1,0,0,1,0,0)" fill="#0c1d36" class="undefined-text-0" data-fill-palette-color="quaternary" id="text-0"></path></svg></g></svg></g></svg></g></svg></g><g></g></svg></g></svg></g></svg></g><defs></defs></svg><rect width="576" height="360" fill="none" stroke="none" visibility="hidden"></rect></g></svg></g></svg>